# xmcd CD database file
#
# Track frame offsets:
#	150
#	18602
#	42962
#	62337
#	83297
#	107087
#	123195
#	144760
#	170985
#	195022
#	215895
#
# Disc length: 3136 seconds
#
# Revision: 3
# Processed by: cddbd v1.5.2PL0 Copyright (c) Steve Scherf et al.
# Submitted via: jetAudio 7
#
DISCID=8a0c3e0b
DTITLE=Various Artist - 太陽
DYEAR=2003
DGENRE=Musical
TTITLE0=夏川里美 - 安里屋小調
TTITLE1=夏川里美 - 一朵紅花
TTITLE2=夏川里美 - 搖籃曲
TTITLE3=夏川里美 - 心的樣子
TTITLE4=夏川里美 - 島歌
TTITLE5=夏川里美 - 月夜
TTITLE6=夏川里美 - 樂園
TTITLE7=夏川里美 - 赤月首里殿內
TTITLE8=夏川里美 - 月之風情
TTITLE9=夏川里美 - 芭蕉步
TTITLE10=夏川里美 - 淚\光閃閃
EXTD=
EXTT0=
EXTT1=
EXTT2=
EXTT3=
EXTT4=
EXTT5=
EXTT6=
EXTT7=
EXTT8=
EXTT9=
EXTT10=
PLAYORDER=
